<svg width="496" height="496" viewBox="0 0 496 496" fill="none" xmlns="http://www.w3.org/2000/svg">
<circle cx="248" cy="248" r="248" fill="#202024"/>
<g filter="url(#filter0_b_29_33)">
<path d="M90.2973 331.276C124.297 368.276 188.251 387.276 217.797 351.276C189.589 363.081 177.91 352.795 164.798 302.776C144.798 201.276 183 163 132.797 168.276C67.2976 180.276 34.7977 267.776 90.2973 331.276Z" fill="#FDE95E"/>
<path d="M306.514 376.775C331.437 397.962 373.348 399.175 434.798 358.275C419.798 325.775 365.798 403.275 306.514 376.775Z" fill="#FDE95E" fill-opacity="0.7"/>
<path d="M217.797 351.276C238.44 326.124 248.957 305.044 265.797 254.776C260.417 321.417 269.798 353.775 306.514 376.775C268.977 344.866 269.976 267.652 300.798 220.776C386.298 86.2755 257.656 66.7754 208.298 173.776C187.254 219.395 177.682 247.583 164.798 302.776C177.91 352.795 189.589 363.081 217.797 351.276Z" fill="#FFC100"/>
<path d="M217.797 351.276C238.44 326.124 248.957 305.044 265.797 254.776C260.417 321.417 269.798 353.775 306.514 376.775M217.797 351.276C188.251 387.276 124.297 368.276 90.2973 331.276C34.7977 267.776 67.2976 180.276 132.797 168.276C183 163 144.798 201.276 164.798 302.776M217.797 351.276C189.589 363.081 177.91 352.795 164.798 302.776M164.798 302.776C177.682 247.583 187.254 219.395 208.298 173.776C257.656 66.7754 386.298 86.2755 300.798 220.776C269.976 267.652 268.977 344.866 306.514 376.775M306.514 376.775C331.437 397.962 373.348 399.175 434.798 358.275C419.798 325.775 365.798 403.275 306.514 376.775Z" stroke="#FDE95E"/>
</g>
<defs>
<filter id="filter0_b_29_33" x="57.5035" y="100.5" width="381.927" height="295.268" filterUnits="userSpaceOnUse" color-interpolation-filters="sRGB">
<feFlood flood-opacity="0" result="BackgroundImageFix"/>
<feGaussianBlur in="BackgroundImageFix" stdDeviation="2"/>
<feComposite in2="SourceAlpha" operator="in" result="effect1_backgroundBlur_29_33"/>
<feBlend mode="normal" in="SourceGraphic" in2="effect1_backgroundBlur_29_33" result="shape"/>
</filter>
</defs>
</svg>
